<svg xmlns="http://www.w3.org/2000/svg" width="253" height="76"><g fill="none" fill-rule="evenodd"><path fill="#00C86F" fill-rule="nonzero" d="M17.067 0h38.235a17.037 17.037 0 0117.066 17.063v38.242a17.027 17.027 0 01-17.066 17.063H17.067C7.629 72.368 0 64.744 0 55.305V17.079C0 7.624 7.614 0 17.067 0z"/><g fill="#0B111C" fill-rule="nonzero"><path d="M34.834 37.898c-.82 5.278-5.824 9.068-11.983 9.068-7.447 0-12.862-5.368-12.862-12.797 0-.917.091-5.654 3.701-9.248 1.638-1.625 3.338-2.361 4.126-2.707 1.835-.782 3.7-1.098 14.94-1.098h.637c1.274 1.58 2.548 3.158 3.822 4.722-3.7-.015-8.782.06-14.227.361-1.001.06-2.503.165-3.99 1.143-2.062 1.353-3.32 3.79-3.32 6.812 0 4.662 3.048 7.955 7.31 7.955 3.049 0 5.794-2.075 6.537-4.902l5.309.691z"/><path d="M41.887 36.259c.197 3.323 3.291 5.88 7.113 5.88 4.536 0 7.797-3.354 7.797-7.955 0-2.797-1.153-5.113-3.05-6.511-1.38-1.023-2.805-1.248-4.565-1.444-2.836-.316-6.886-.586-11.967-.36-1.274-1.581-2.547-3.16-3.822-4.723a376.08 376.08 0 017.16 0c4.155.03 6.248.106 7.31.15 1.805.076 2.7.121 3.018.151 1.198.166 5.658.797 8.797 4.587 2.564 3.097 2.806 6.706 2.806 8.15 0 7.414-5.581 12.797-13.347 12.797-8.13 0-13.514-6.045-12.726-14.406h12.938v3.7l-7.462-.016z"/><g><path d="M53.202 20.8c-.303-.105-.713-.24-1.213-.376-.273-.075-.486-.135-.759-.18-.758-.15-1.365-.165-2.123-.18-.228 0-.531-.016-.91 0V9.913h5.005v10.886z"/><path stroke="#0B111C" stroke-width="2" d="M37.458 53.785c.076.376.47 2.226 2.29 3.309 0 0 1.35.722 3.049.737.197 0 2.79-.09 4.49-2 1.289-1.46 1.38-3.188 1.41-3.91.015-.196 0-.21-.03-2.06-.015-.948-.03-1.715-.03-2.226.637.06 1.41.075 2.305 0 .698-.06 1.32-.18 1.805-.3v4.571c-.015.752-.091 3.022-1.547 5.218-1.077 1.639-2.518 2.571-3.322 3.007a10.865 10.865 0 01-5.49 1.324c-.501-.03-1.73-.12-3.17-.662a9.876 9.876 0 01-2.746-1.594 9.9 9.9 0 01-2.305-2.707 8.726 8.726 0 01-1.047-2.767c1.441.015 2.882.045 4.338.06z"/><path d="M39.733 49.274h-8.327c-1.198 0-2.169 1.113-2.169 2.481v.467c0 1.368.97 2.48 2.17 2.48h8.326c1.198 0 2.17-1.112 2.17-2.48v-.468c-.016-1.368-.987-2.48-2.17-2.48z"/></g></g><path d="M83.951 37.071h168.928v38.282H83.951z"/><path d="M102.763 48.522c-.377 3.929-4.034 6.795-8.673 6.795-5.349 0-9.217-3.807-9.217-9.07 0-5.248 3.868-9.07 9.187-9.07 4.593 0 8.22 2.882 8.658 6.886l-4.714.5a3.875 3.875 0 00-3.778-3.033c-2.523 0-4.246 1.911-4.246 4.702 0 2.79 1.738 4.702 4.216 4.702 1.813 0 3.4-1.259 3.793-2.988l4.774.576zm2.101 6.204V37.784h5.122v6.203h5.636v-6.203h5.122v16.942h-5.122v-6.75h-5.636v6.75h-5.122zm35.266 0h-5.349l-.725-2.548h-5.863l-.725 2.548h-5.35l5.274-16.942h7.45l5.288 16.942zm-10.94-6.158h3.884l-1.95-6.461-1.934 6.46zm12.345 6.158V37.784h5.122v12.589h6.18v4.353h-11.302zm13.282 0V37.784h5.122v12.589h6.18v4.353h-11.302zm25.55-4.02v4.02h-12.284V37.784h12.043v4.004h-7.117v2.579h6.18v3.458h-6.18v2.881zm13.191-2.153V37.784h4.76v16.942h-5.334l-5.772-10.739v10.739h-4.759V37.784h5.333zm16.168-.622v-2.988h9.187c.62 6.006-3.189 10.359-9.006 10.359-5.485 0-9.474-3.807-9.474-9.07 0-5.248 3.99-9.07 9.474-9.07 4.125 0 7.42 2.366 8.205 5.673l-4.714.88c-.408-1.275-1.844-2.2-3.506-2.2-2.523 0-4.336 1.957-4.336 4.702 0 2.715 1.888 4.702 4.548 4.702 2.07 0 3.792-1.305 3.943-3.034h-4.321v.046zm23.647 2.775v4.02h-12.285V37.784h12.043v4.004h-7.117v2.579h6.18v3.458h-6.18v2.881zm1.48-1.562h4.428c.03 1.441 1.36 2.503 3.203 2.503 1.51 0 2.478-.713 2.478-1.654 0-2.987-10.018-.045-10.018-6.976 0-3.504 2.992-5.824 7.238-5.824s7.313 2.487 7.328 5.915h-4.261c0-1.305-1.254-2.245-2.916-2.245-1.436 0-2.433.637-2.433 1.532 0 2.836 10.018-.046 10.018 6.886 0 3.579-3.128 6.036-7.585 6.036-4.337 0-7.48-2.609-7.48-6.173z" fill="#FFF" fill-rule="nonzero"/><path d="M121.041 26.655a.602.602 0 01-.245.364.942.942 0 01-.367.152c-.245.091-.52.152-.735.273-.275.122-.52.183-.734.274-.276.121-.551.182-.796.273a4.76 4.76 0 00-.55.303 1.957 1.957 0 00-.399.456c-.122.182-.153.425-.153.728 0 .577.153 1.002.429 1.336.275.273.795.425 1.56.425.766 0 1.286-.152 1.561-.425.276-.304.429-.729.429-1.275v-2.884zm-2.02-6.162c1.377 0 2.356.273 3.03.789.642.546.948 1.214.948 2.003v6.831c0 .273-.03.577-.153.91a2.214 2.214 0 01-.581.911 3.591 3.591 0 01-1.224.698c-.52.183-1.194.274-2.02.274-.826 0-1.5-.091-2.02-.274a3.591 3.591 0 01-1.224-.698c-.306-.273-.52-.577-.581-.91-.092-.365-.154-.638-.154-.911v-1.123c0-.577.154-1.124.429-1.61a2.485 2.485 0 011.285-1.001c.276-.122.582-.182.949-.304.367-.121.704-.243 1.071-.364s.643-.243.857-.304c.245-.09.398-.151.46-.151a.908.908 0 01.244-.122c.092-.03.184-.152.306-.243.092-.121.153-.242.245-.364.092-.152.092-.303.092-.516v-.425c0-.152-.031-.304-.092-.455-.03-.152-.153-.304-.306-.425-.153-.152-.367-.243-.643-.365-.245-.09-.581-.121-.98-.121-.795 0-1.285.152-1.56.455a1.534 1.534 0 00-.398 1.002c0 .091-.092.152-.153.152h-1.683c-.092 0-.153-.091-.153-.152v-.395c0-.394.092-.728.245-1.092.153-.365.398-.638.704-.911a3.204 3.204 0 011.254-.577c.52-.091 1.102-.212 1.806-.212zm-27.054 6.162a.598.598 0 01-.245.364.936.936 0 01-.367.152c-.245.091-.52.152-.734.273-.276.122-.52.183-.735.274-.275.121-.55.182-.796.273-.183.09-.367.182-.55.303a1.954 1.954 0 00-.398.456c-.123.182-.153.425-.153.728 0 .577.153 1.002.428 1.336.276.273.796.425 1.561.425.765 0 1.285-.152 1.622-.425.275-.304.428-.729.428-1.275l-.06-2.884zm-1.958-6.162c1.377 0 2.356.273 3.03.789.642.546.948 1.214.948 2.003v6.831c0 .273-.03.577-.153.91-.092.365-.306.638-.581.911a3.587 3.587 0 01-1.225.698c-.52.183-1.193.274-2.02.274-.826 0-1.499-.091-2.02-.274a3.586 3.586 0 01-1.223-.698c-.306-.273-.52-.577-.582-.91a2.705 2.705 0 01-.153-.911v-1.123c0-.577.153-1.124.429-1.61a2.485 2.485 0 011.285-1.001c.275-.122.581-.182.949-.304.367-.121.703-.243 1.07-.364.368-.121.643-.243.858-.304.244-.09.397-.151.459-.151.092 0 .153-.091.245-.122.122-.03.183-.152.306-.243.122-.121.153-.242.244-.364.092-.152.123-.303.123-.516v-.425a.838.838 0 00-.123-.455c-.03-.152-.153-.304-.306-.425-.153-.152-.367-.243-.642-.365-.245-.09-.582-.121-.98-.121-.795 0-1.285.152-1.56.455a1.534 1.534 0 00-.398 1.002c0 .091-.092.152-.153.152h-1.684c-.091 0-.153-.091-.153-.152v-.395c0-.394.092-.728.245-1.092.153-.365.398-.638.704-.911.306-.243.735-.455 1.255-.577.459-.091 1.102-.212 1.806-.212zm22.983 0h1.132c.123 0 .153.121.153.182l-.397 1.457c0 .091-.092.121-.153.121h-.766c-.428 0-.734.03-1.01.152-.244.122-.459.243-.581.395-.153.152-.245.303-.275.455-.031.152-.031.304-.031.455v9.077c0 .091-.092.152-.153.152h-1.683c-.092 0-.153-.091-.153-.152v-9.471c0-.152.03-.425.122-.729.03-.303.245-.637.52-.94.276-.304.674-.578 1.194-.82.398-.213 1.163-.334 2.081-.334zm-5.692 9.228v.425c0 .182-.03.425-.123.729-.03.303-.245.637-.52.94-.275.304-.673.578-1.194.82-.55.243-1.254.365-2.203.365-.949 0-1.683-.122-2.203-.365-.551-.242-.95-.516-1.194-.82a2.423 2.423 0 01-.52-.94c-.03-.304-.123-.547-.123-.729v-9.441c0-.091.092-.152.153-.152h1.684c.091 0 .153.091.153.152V29.6c0 .303.03.516.091.668.031.151.123.364.245.455.123.152.306.273.582.395.245.121.581.151 1.07.151.43 0 .827-.03 1.103-.151.275-.122.459-.243.581-.365.153-.151.245-.303.275-.455.031-.152.123-.304.123-.698v-8.865c0-.09.092-.151.153-.151h1.683c.092 0 .153.09.153.151l.03 8.986zM95.793 16h1.683c.092 0 .153.09.153.152v16.666c0 .09-.092.151-.153.151h-1.683c-.092 0-.153-.09-.153-.151V16.152c0-.061.06-.152.153-.152z" fill="#FFF"/></g></svg>